<svg id="img_top" xmlns="http://www.w3.org/2000/svg" xmlns:xlink="http://www.w3.org/1999/xlink" width="70" height="150" viewBox="0 0 70 150">
  <defs>
    <clipPath id="clip-path">
      <rect id="Rectangle_20" data-name="Rectangle 20" width="59.293" height="144.453"/>
    </clipPath>
  </defs>
  <g id="Group_16" data-name="Group 16" transform="translate(5 3)">
    <g id="Group_15" data-name="Group 15" clip-path="url(#clip-path)">
      <path id="Path_41" data-name="Path 41" d="M29.671,0s0,.166,0,.474c-.006-.179-.007-.34,0-.474L29.62.491c0-.319,0-.491,0-.491C25.487,31.543,0,35.079,0,35.079c19.116,1.57,25.9-12.84,28.306-23.668V144.453h2.681V11.411c2.4,10.828,9.189,25.238,28.306,23.668,0,0-25.487-3.536-29.621-35.079m-.995,9.593h0" transform="translate(0 0)"/>
    </g>
  </g>
  <rect id="Rectangle_26" data-name="Rectangle 26" width="70" height="150" fill="none"/>
</svg>
