<svg xmlns="http://www.w3.org/2000/svg" xmlns:xlink="http://www.w3.org/1999/xlink" width="300" height="100" viewBox="0 0 300 100">
  <defs>
    <clipPath id="clip-path">
      <rect id="Rectangle_22" data-name="Rectangle 22" width="93.521" height="97.987" fill="none"/>
    </clipPath>
    <clipPath id="clip-path-2">
      <rect id="Rectangle_23" data-name="Rectangle 23" width="200.541" height="32.378" fill="none"/>
    </clipPath>
  </defs>
  <g id="Group_25" data-name="Group 25" transform="translate(-59 -23)">
    <g id="Group_22" data-name="Group 22" transform="translate(-107.851 -47.47)">
      <g id="Group_19" data-name="Group 19" transform="translate(169.851 71.47)">
        <g id="Group_18" data-name="Group 18" clip-path="url(#clip-path)">
          <path id="Path_43" data-name="Path 43" d="M23.7,65.163c-2.578,0-6.845-3.047-6.891-3.081C11.5,58.173,8.217,52.816,8.036,47.753a37.57,37.57,0,0,1,.552-6.645c.1-.667.195-1.358.28-2.035a58.452,58.452,0,0,0,.455-7.1c.01-3.327-.327-7.412-2.841-10.391A2.84,2.84,0,0,1,4.9,23.669a3.7,3.7,0,0,1-3.69-.306A2.951,2.951,0,0,1,0,21.055a3.591,3.591,0,0,1,1.233-2.829A5.348,5.348,0,0,1,5.129,16.95a10.073,10.073,0,0,1,1.555-6.039A24.7,24.7,0,0,1,20.528,1.063,26.331,26.331,0,0,1,38.229,2.1a22.291,22.291,0,0,1,12.1,11.446L49.286,14a21.166,21.166,0,0,0-11.5-10.851,25.2,25.2,0,0,0-16.936-1A23.566,23.566,0,0,0,7.635,11.528a9.119,9.119,0,0,0-1.37,5.55,21.583,21.583,0,0,1,4.576,1.549l.5.213A14.762,14.762,0,0,1,19.041,26a12.427,12.427,0,0,1,.308,9.54A22.087,22.087,0,0,1,16.5,40.316c-.351.491-.682.954-.993,1.416A2.01,2.01,0,0,0,14.992,43c.1.541.91.86,1.785.949a3.258,3.258,0,0,1,.8-1.629,1.907,1.907,0,0,1,1.328-.69,1.419,1.419,0,0,1,1.328.821,1.6,1.6,0,0,1-.185,1.713,2.992,2.992,0,0,1-2.089.909c.047.159.109.323.172.492a4.414,4.414,0,0,1,.328,1.246,4.01,4.01,0,0,1-1.49,3.012,3.612,3.612,0,0,0,1.68-.166c.264-.085.524-.184.8-.289a7.23,7.23,0,0,1,2.185-.576,7.315,7.315,0,0,1,2.938.626,6.759,6.759,0,0,0,2.388.567l.474-.009.093.464A1.475,1.475,0,0,1,26.586,52a4.025,4.025,0,0,1-1.484.281l-1.16.064c-2.1.118-4.269.239-6.429.255a5.029,5.029,0,0,0,3.546,1.884,14.147,14.147,0,0,0,1.981-.2c2.769-.383,3.928-.463,4.232.306a1.472,1.472,0,0,1-.5,1.619,4.568,4.568,0,0,1-.636.46c-.134.085-.26.166-.371.251a2.675,2.675,0,0,0-.973,2.094,7.8,7.8,0,0,0,.525,2.575,3.487,3.487,0,0,1,.149,2.565,1.642,1.642,0,0,1-1.123.934,2.523,2.523,0,0,1-.642.076M6.571,20.028c3.5,3.353,3.9,8.41,3.885,11.953a59.575,59.575,0,0,1-.464,7.234c-.086.687-.186,1.382-.282,2.054a36.7,36.7,0,0,0-.541,6.443c.168,4.72,3.277,9.751,8.314,13.456,1.341.987,5.138,3.2,6.572,2.822a.511.511,0,0,0,.377-.3,2.627,2.627,0,0,0-.191-1.747,8.72,8.72,0,0,1-.582-2.958,3.8,3.8,0,0,1,1.416-2.965c.15-.115.3-.212.451-.307a3.665,3.665,0,0,0,.484-.345.785.785,0,0,0,.18-.229A18.542,18.542,0,0,0,23.2,55.4a11.775,11.775,0,0,1-2.267.205c-2.014-.232-4.289-1.383-4.83-3.432l-.189-.717.741,0c2.412.016,4.859-.12,7.227-.253l1.162-.064a3.866,3.866,0,0,0,.923-.122,11.567,11.567,0,0,1-1.782-.543,6.365,6.365,0,0,0-2.486-.56,6.287,6.287,0,0,0-1.845.5c-.277.106-.563.215-.856.309a3.725,3.725,0,0,1-3.382-.32l-.5-.418.483-.438c.914-.829,1.8-1.717,1.733-2.67a3.525,3.525,0,0,0-.259-.93,5.985,5.985,0,0,1-.275-.873c-1.38-.108-2.7-.695-2.917-1.881a2.922,2.922,0,0,1,.69-2.111c.32-.474.671-.966,1.011-1.441a21.3,21.3,0,0,0,2.71-4.513,11.288,11.288,0,0,0-.276-8.665A13.618,13.618,0,0,0,10.9,19.885l-.5-.215a22.343,22.343,0,0,0-4.028-1.421c.012.094.026.189.039.285.064.465.135.976.164,1.494M18.958,42.764h-.011a.882.882,0,0,0-.531.32,2.138,2.138,0,0,0-.476.852,1.889,1.889,0,0,0,1.244-.5.471.471,0,0,0,.031-.485.28.28,0,0,0-.257-.184M4.836,18.076a4.2,4.2,0,0,0-2.857,1.006,2.447,2.447,0,0,0-.844,1.927,1.838,1.838,0,0,0,.743,1.441,2.561,2.561,0,0,0,2.518.2c1.247-.614,1.154-2.03.887-3.964-.028-.206-.056-.407-.08-.6q-.185-.011-.368-.011" transform="translate(0 0)" fill="#383b45"/>
          <path id="Path_44" data-name="Path 44" d="M74.424,120.078,74.058,119c2.053-.7,3.56-2.321,5.05-4.063,2.946-3.444,3.4-8.645,3.452-10.722l.308-11.333a54.592,54.592,0,0,0-.573-12.132,15.458,15.458,0,0,0-1.634-4.7c-1.974-3.485-6.212-5.949-11.06-6.43-4.735-.471-9.116,1.045-11.72,4.053l-.857-.742c2.844-3.286,7.588-4.946,12.689-4.439,5.209.517,9.782,3.2,11.934,7a16.546,16.546,0,0,1,1.759,5.042A55.438,55.438,0,0,1,84,92.918l-.308,11.333c-.179,6.595-2.664,10.189-3.724,11.428-1.6,1.866-3.222,3.607-5.546,4.4" transform="translate(-44.095 -52.894)" fill="#383b45"/>
          <path id="Path_45" data-name="Path 45" d="M141.48,129.187a3.335,3.335,0,0,1-1.28-.239,2.625,2.625,0,0,1-1.47-3.312c.666-1.681,2.326-1.881,3.79-2.058a11.132,11.132,0,0,0,1.38-.223q.149-.038.292-.08c-1.625-2.65-5.655-5.343-7.173-6.358a44.875,44.875,0,0,0-9.645-4.39l-11.856-4.314a15.659,15.659,0,0,1-4.961-2.514c-1.6-1.379-2.231-2.794-1.888-4.206.373-1.537,2.253-3.535,6.41-4.535.876-.211,1.817-.382,2.728-.547,3.028-.551,6.159-1.12,8.015-3.234,1.213-1.382,1.716-3.319,1.583-6.1-.237-4.925-.9-9.913-1.543-14.736-.251-1.884-.51-3.832-.741-5.751-.719-5.983.154-11.411,2.525-15.7,2.785-5.037,7.452-8.3,13.87-9.713a31.591,31.591,0,0,1,16.714.6A23.734,23.734,0,0,1,170.8,51.422a9.875,9.875,0,0,1,1.557,5.673,7,7,0,0,1,3.891,1.642,3.59,3.59,0,0,1,1.232,2.829,2.951,2.951,0,0,1-1.2,2.308,3.7,3.7,0,0,1-3.69.306A2.84,2.84,0,0,1,171,62.1c-2.513,2.979-2.85,7.064-2.841,10.391a58.479,58.479,0,0,0,.455,7.1c.085.677.184,1.367.28,2.034a37.551,37.551,0,0,1,.552,6.645c-.181,5.063-3.461,10.42-8.775,14.329-.844.621-5.21,3.684-8.249,3.006l-.451-.1.008-.462a19.157,19.157,0,0,1,.263-2.49c.044-.3.089-.59.128-.884.189-1.429.3-3.032-.744-3.957-.08-.071-.167-.139-.254-.208a2.071,2.071,0,0,1-.931-1.275,1.3,1.3,0,0,1,.322-1.028,2.064,2.064,0,0,1,1.5-.675,8.094,8.094,0,0,1,1.959.261,6.385,6.385,0,0,0,2.2.216,5.03,5.03,0,0,0,3.546-1.884c-2.16-.016-4.326-.137-6.429-.255l-1.16-.064a4.033,4.033,0,0,1-1.484-.281,1.474,1.474,0,0,1-.938-1.558l.093-.464.473.009a6.813,6.813,0,0,0,2.388-.567,7.3,7.3,0,0,1,2.938-.626,7.221,7.221,0,0,1,2.185.576c.275.1.535.2.8.289a3.618,3.618,0,0,0,1.68.166,4.011,4.011,0,0,1-1.49-3.012,4.407,4.407,0,0,1,.328-1.246c.063-.17.124-.333.172-.492a2.992,2.992,0,0,1-2.089-.909,1.6,1.6,0,0,1-.185-1.713,1.417,1.417,0,0,1,1.328-.821,1.908,1.908,0,0,1,1.328.69,3.257,3.257,0,0,1,.8,1.629c.875-.088,1.683-.408,1.784-.949a2.01,2.01,0,0,0-.515-1.269c-.312-.462-.643-.925-.994-1.416a22.086,22.086,0,0,1-2.848-4.771c-1.935-5.126-.147-11.111,4.667-15.619a12.446,12.446,0,0,1,2.989-2.015c-2.161-2.65-5.873-4.153-10.093-4.055-4.516.107-8.532,2.1-10.481,5.206a10.145,10.145,0,0,0-1.317,3.462c-.827,4.118.632,7.922,2.177,11.949.444,1.156.9,2.352,1.3,3.541,1.086,3.291,2.288,8.163.188,12.47a21.445,21.445,0,0,1-2.027,3.155c-.233.32-.466.64-.693.963-2.111,3.012-3.185,5.728-3.281,8.3-.107,2.863,1.655,5.018,3.521,7.3a33.133,33.133,0,0,1,2.179,2.871c1.642,2.528,2.133,5.289,1.314,7.386a5.421,5.421,0,0,1-2.824,2.917A4.426,4.426,0,0,1,146,125.02a3.529,3.529,0,0,1-1.191,2.954,4.291,4.291,0,0,1-1.614.9,5.447,5.447,0,0,1-1.719.309m3.215-4.881q-.25.079-.514.147a12.043,12.043,0,0,1-1.525.25c-1.528.185-2.483.367-2.872,1.35a1.474,1.474,0,0,0,.849,1.848,3.285,3.285,0,0,0,2.2-.1,3.21,3.21,0,0,0,1.2-.65,2.416,2.416,0,0,0,.845-2.036,3.325,3.325,0,0,0-.181-.811m4.332-82.825a33.945,33.945,0,0,0-7.269.809c-6.086,1.336-10.5,4.416-13.121,9.154-2.255,4.077-3.082,9.269-2.392,15.013.23,1.912.489,3.857.739,5.737.645,4.847,1.313,9.858,1.552,14.831.093,1.944,0,4.774-1.863,6.9-2.116,2.411-5.445,3.016-8.664,3.6-.936.17-1.821.331-2.665.534-2.471.594-5.153,1.969-5.574,3.7-.234.966.279,2,1.527,3.081a14.828,14.828,0,0,0,4.608,2.307l11.856,4.314a45.706,45.706,0,0,1,9.887,4.512c2.7,1.807,6.122,4.313,7.615,6.9a4.269,4.269,0,0,0,2.251-2.307c.676-1.732.213-4.167-1.209-6.356a32.325,32.325,0,0,0-2.106-2.771c-1.918-2.345-3.9-4.77-3.777-8.061.105-2.8,1.245-5.716,3.486-8.912.23-.329.468-.654.7-.98a20.3,20.3,0,0,0,1.925-2.985c1.461-2.995,1.383-6.686-.245-11.617-.384-1.163-.838-2.346-1.277-3.49-1.535-4-3.122-8.137-2.231-12.578a11.262,11.262,0,0,1,1.468-3.842c2.149-3.422,6.523-5.62,11.415-5.737,4.692-.111,8.838,1.644,11.191,4.715a12.489,12.489,0,0,1,4.361-.908,8.791,8.791,0,0,0-1.374-5,22.61,22.61,0,0,0-11.976-9.178,27.969,27.969,0,0,0-8.844-1.379m4.108,63.075c2.136.131,5.261-1.7,6.864-2.876,5.038-3.706,8.146-8.736,8.314-13.456a36.7,36.7,0,0,0-.541-6.444c-.1-.672-.2-1.367-.283-2.054a59.561,59.561,0,0,1-.464-7.234c-.021-7.237,2.142-10.3,3.885-11.954.029-.518.1-1.029.164-1.493.042-.3.082-.593.108-.859a12.263,12.263,0,0,0-7.607,3.078c-4.473,4.189-6.151,9.7-4.381,14.392a21.282,21.282,0,0,0,2.71,4.512c.339.475.691.967,1.011,1.441a2.923,2.923,0,0,1,.69,2.111c-.221,1.186-1.537,1.772-2.917,1.881a6,6,0,0,1-.275.873,3.513,3.513,0,0,0-.259.93c-.068.952.819,1.841,1.733,2.669l.483.438-.5.418a3.724,3.724,0,0,1-3.382.32c-.293-.094-.58-.2-.856-.309a6.281,6.281,0,0,0-1.845-.5A6.369,6.369,0,0,0,153.3,91a11.621,11.621,0,0,1-1.782.543,3.875,3.875,0,0,0,.923.122l1.161.064c2.368.132,4.82.269,7.228.253l.741,0-.189.717c-.541,2.048-2.816,3.2-4.83,3.431a7.365,7.365,0,0,1-2.571-.234,7.331,7.331,0,0,0-1.7-.235.955.955,0,0,0-.659.279.2.2,0,0,0-.06.136c.021.153.282.36.512.543.1.082.205.163.3.247,1.588,1.4,1.282,3.714,1.118,4.955-.04.3-.085.6-.13.9-.092.609-.186,1.234-.229,1.842m5.389-21.282a.281.281,0,0,0-.257.184.471.471,0,0,0,.031.485,1.888,1.888,0,0,0,1.244.5,2.135,2.135,0,0,0-.476-.852.882.882,0,0,0-.531-.32h-.011m13.792-25.031c-.028.3-.072.623-.118.957-.267,1.934-.36,3.35.887,3.964a2.562,2.562,0,0,0,2.518-.2,1.838,1.838,0,0,0,.743-1.441,2.447,2.447,0,0,0-.843-1.927,5.859,5.859,0,0,0-3.187-1.35" transform="translate(-83.961 -31.2)" fill="#383b45"/>
        </g>
      </g>
      <g id="Group_21" data-name="Group 21" transform="translate(263.371 137.079)">
        <g id="Group_20" data-name="Group 20" clip-path="url(#clip-path-2)">
          <path id="Path_46" data-name="Path 46" d="M5.425,17.459,9.483,4.529,13.5,17.459Zm16.51,6.9c-.092-.184-.73-1.887-1.021-2.714l0-.007L15.041,2.809Q14.168,0,12.607,0H5.595V.379A3.349,3.349,0,0,1,8.974,2.96l.308.988-5.9,18.9A3.278,3.278,0,0,1,0,25.43v.379H6.151V25.43q-2.637,0-2.637-1.333a3.8,3.8,0,0,1,.2-1.105l1.628-5.153h8.269L15.223,23a1.5,1.5,0,0,0,.124.256,5.134,5.134,0,0,0,4.463,2.568l2.527,0,2.309-.018V25.43c-1.574,0-2.2-.044-2.712-1.073" transform="translate(0 0)" fill="#383b45"/>
          <path id="Path_47" data-name="Path 47" d="M230.077,5.393A2.445,2.445,0,0,0,231.9,4.6a2.665,2.665,0,0,0,.754-1.908A2.659,2.659,0,0,0,231.9.8a2.487,2.487,0,0,0-3.651,0,2.662,2.662,0,0,0-.754,1.9,2.667,2.667,0,0,0,.754,1.908,2.45,2.45,0,0,0,1.83.789" transform="translate(-163.811 0.001)" fill="#383b45"/>
          <path id="Path_48" data-name="Path 48" d="M226.006,43.737V31.6c0-1.795-.425-2.7-1.292-2.7h-6.451v.338c1.717,0,2.584.789,2.584,2.358v9.946a4.8,4.8,0,0,0,.746,2.081,6.151,6.151,0,0,0,5.272,2.818l1.726-.009V46.1c-1.726,0-2.584-.789-2.584-2.359" transform="translate(-157.165 -20.811)" fill="#383b45"/>
          <path id="Path_49" data-name="Path 49" d="M266.375,22.926V2.7c0-1.795-.425-2.7-1.283-2.7h-6.46V.338c1.725,0,2.584.789,2.584,2.358V20.611a4.733,4.733,0,0,0,1.023,2.5,6.562,6.562,0,0,0,5.272,2.523l1.448-.009v-.338c-1.717,0-2.584-.789-2.584-2.359" transform="translate(-186.233)" fill="#383b45"/>
          <path id="Path_50" data-name="Path 50" d="M170.426,29.188a5.622,5.622,0,0,0-3.1-.876,8.29,8.29,0,0,0-3.607.642,9.956,9.956,0,0,0-2.263,1.717l-.191-.572a4.831,4.831,0,0,0-.52-1.075c-.191-.364-.382-.546-.581-.546h-6.452v.338c1.717,0,2.584.789,2.584,2.359v9.443a4.945,4.945,0,0,0,.841,2.7,6.012,6.012,0,0,0,5.107,2.706l1.795-.009v-.338c-1.725,0-2.584-.789-2.584-2.359v-12.1a5.323,5.323,0,0,1,4.067-2.22c.815,0,1.222.451,1.222,1.344l-.121,1.353a2.575,2.575,0,0,0,.772,1.916,2.458,2.458,0,0,0,1.8.78,2.368,2.368,0,0,0,1.839-.815,2.655,2.655,0,0,0,.745-1.882,2.8,2.8,0,0,0-1.353-2.5" transform="translate(-110.681 -20.387)" fill="#383b45"/>
          <path id="Path_51" data-name="Path 51" d="M98.351,43.886a2.808,2.808,0,0,1-2.844,1.925A5.274,5.274,0,0,1,92.281,44.6V31.174a11.9,11.9,0,0,0-.069-1.275,5.366,5.366,0,0,1,3.3-1.248,2.839,2.839,0,0,1,2.844,1.916q.377.95.382,6.677,0,5.567-.382,6.642m3.252-13.2a8.059,8.059,0,0,0-6.1-2.376,5.929,5.929,0,0,0-3.356,1.214q-.065,0-.468-.52c-.269-.347-.5-.529-.694-.529H84.538v.338c1.717,0,2.575.789,2.575,2.359V47.467A5.016,5.016,0,0,0,88,50.111,6.1,6.1,0,0,0,93.1,52.765l1.76-.009v-.338c-1.725,0-2.584-.789-2.584-2.359V45.03a5.632,5.632,0,0,0,3.226,1.119,8.085,8.085,0,0,0,6.113-2.367,9.011,9.011,0,0,0,2.281-6.538,9.031,9.031,0,0,0-2.3-6.555" transform="translate(-60.873 -20.387)" fill="#383b45"/>
          <path id="Path_52" data-name="Path 52" d="M412.986,36.627h7.743q0-5.125-.485-6.2a3.358,3.358,0,0,0-3.391-2.055c-1.63,0-2.688.572-3.156,1.717a20.146,20.146,0,0,0-.711,6.538m3.867,9.27a9.167,9.167,0,0,1-6.712-2.324,8.97,8.97,0,0,1-2.323-6.607,8.962,8.962,0,0,1,2.358-6.607,10.767,10.767,0,0,1,13.363,0,8.958,8.958,0,0,1,2.35,6.607h-12.9q0,5.97.642,6.911a3.755,3.755,0,0,0,3.226,1.691,8.846,8.846,0,0,0,4.552-1.248,9.728,9.728,0,0,0,3.391-3.269l.26.165a9.866,9.866,0,0,1-3.486,3.408,9.238,9.238,0,0,1-4.717,1.275" transform="translate(-293.658 -20.186)" fill="#383b45"/>
          <path id="Path_53" data-name="Path 53" d="M492.715,28.372h.329l.286,4.752h-.321a6.345,6.345,0,0,0-1.084-2.732,4.24,4.24,0,0,0-1.786-1.439,6.705,6.705,0,0,0-2.9-.581,3.429,3.429,0,0,0-2.41.824,2.374,2.374,0,0,0-.885,1.734,2.036,2.036,0,0,0,.746,1.717,12.869,12.869,0,0,0,1.812,1.145l4.838,2.35q3.031,1.691,3.027,4.4,0,5.359-7.743,5.359a7.9,7.9,0,0,1-2.289-.329,7.655,7.655,0,0,1-2.645-1.457,1.259,1.259,0,0,0-.807-.338c-.537,0-.806.633-.806,1.89h-.329l.13-5.185h.321a3.28,3.28,0,0,0,.356,1.275,6.267,6.267,0,0,0,3.052,3.174,6.993,6.993,0,0,0,3.018.642q3.291,0,3.3-2.567a3.174,3.174,0,0,0-1.942-2.861l-4.544-2.159a6.576,6.576,0,0,1-2.567-1.994,4.273,4.273,0,0,1-.824-2.627,4.533,4.533,0,0,1,1.986-3.911,8.673,8.673,0,0,1,5.211-1.413,7.409,7.409,0,0,1,2.662.434,4.9,4.9,0,0,0,1.873.425c.572,0,.885-.173.945-.52" transform="translate(-345.449 -20.186)" fill="#383b45"/>
          <path id="Path_54" data-name="Path 54" d="M547.893,5.393a2.445,2.445,0,0,0,1.821-.789,2.665,2.665,0,0,0,.754-1.908,2.659,2.659,0,0,0-.754-1.9,2.487,2.487,0,0,0-3.651,0,2.66,2.66,0,0,0-.754,1.9,2.665,2.665,0,0,0,.754,1.908,2.45,2.45,0,0,0,1.83.789" transform="translate(-392.661 0.001)" fill="#383b45"/>
          <path id="Path_55" data-name="Path 55" d="M543.82,43.737V31.6c0-1.795-.425-2.7-1.292-2.7h-6.451v.338c1.717,0,2.584.789,2.584,2.358v9.946a4.792,4.792,0,0,0,.746,2.081,6.151,6.151,0,0,0,5.272,2.818l1.725-.009V46.1c-1.725,0-2.584-.789-2.584-2.359" transform="translate(-386.013 -20.811)" fill="#383b45"/>
          <path id="Path_56" data-name="Path 56" d="M657.362,43.329V34.563q0-6.23-8.394-6.235a5.93,5.93,0,0,0-3.356,1.214q-.065,0-.468-.52c-.269-.347-.494-.529-.694-.529H638v.338c1.717,0,2.584.789,2.584,2.358v9.824a4.972,4.972,0,0,0,.7,2.133,6.032,6.032,0,0,0,5.168,2.87l1.873.009v-.338c-1.725,0-2.584-.789-2.584-2.359V31.189a11.955,11.955,0,0,0-.061-1.275,5.325,5.325,0,0,1,3.286-1.249q3.226,0,3.226,6.235V40.52l.009.087a4.974,4.974,0,0,0,.832,2.714,6.025,6.025,0,0,0,5.047,2.7l1.864.009v-.338c-1.725,0-2.584-.789-2.584-2.359" transform="translate(-459.404 -20.398)" fill="#383b45"/>
          <path id="Path_57" data-name="Path 57" d="M587.7,30.895V44.318a5.292,5.292,0,0,1-3.226,1.214,2.794,2.794,0,0,1-2.844-1.925q-.39-1.08-.39-6.642,0-5.723.39-6.677a2.84,2.84,0,0,1,2.844-1.916,5.325,5.325,0,0,1,3.287,1.248,11.957,11.957,0,0,0-.061,1.275m1.292-2.7c-.2,0-1.119,1.049-1.162,1.049a5.931,5.931,0,0,0-3.356-1.214,8.059,8.059,0,0,0-6.1,2.393,8.992,8.992,0,0,0-2.289,6.538,9.073,9.073,0,0,0,2.254,6.538,8.159,8.159,0,0,0,6.139,2.367,5.632,5.632,0,0,0,3.226-1.119V46.91a7.077,7.077,0,0,1-.971,3.945,3.684,3.684,0,0,1-3.226,1.283,9.921,9.921,0,0,1-5.133-1.457l-.191.3a10.555,10.555,0,0,0,5.324,1.491,9.573,9.573,0,0,0,6.876-2.367,8.546,8.546,0,0,0,2.48-6.573V33.314c-.208-3.269-3.867-5.116-3.867-5.116" transform="translate(-414.82 -20.186)" fill="#383b45"/>
          <path id="Path_58" data-name="Path 58" d="M336.5,22.251q-1.37,3.061-4.2,3.061h-3.614V.379H332.3q2.828,0,4.2,3.061c.583,1.283.865,4.421.865,9.406s-.282,8.123-.865,9.406m3.6-18.529A9.644,9.644,0,0,0,332.3,0H320.008V.379c1.924,0,2.9.884,2.9,2.643V21.406a3.968,3.968,0,0,0,2.313,3.78,5.443,5.443,0,0,0,2.41.525l4.674-.02a9.643,9.643,0,0,0,7.793-3.722,13.915,13.915,0,0,0,3.061-9.124,13.88,13.88,0,0,0-3.061-9.124" transform="translate(-230.428)" fill="#383b45"/>
        </g>
      </g>
    </g>
    <rect id="Rectangle_24" data-name="Rectangle 24" width="300" height="100" transform="translate(59 23)" fill="none"/>
  </g>
</svg>
