<svg id="img__min-bn" data-name="img_ min-bn" xmlns="http://www.w3.org/2000/svg" xmlns:xlink="http://www.w3.org/1999/xlink" width="720" height="600" viewBox="0 0 720 600">
  <defs>
    <clipPath id="clip-path">
      <rect id="Rectangle_1" data-name="Rectangle 1" width="716.4" height="587.941" fill="none"/>
    </clipPath>
  </defs>
  <g id="Group_2" data-name="Group 2" transform="translate(1 7)">
    <g id="Group_1" data-name="Group 1" clip-path="url(#clip-path)">
      <path id="Path_1" data-name="Path 1" d="M170.14,89.245c14.641,13.232,17.36,33.316,17.306,51.782a259.444,259.444,0,0,1-2.027,31.6c-1.586,12.609-4.1,25.2-3.65,37.881.849,23.762,17.294,46.272,37.688,61.275,5.062,3.724,30.156,19.631,34.413,10.127,1.348-3.014.276-6.4-.749-9.51-1.312-3.983-2.544-8.057-2.44-12.2a14.307,14.307,0,0,1,5.268-11.157c1.38-1.056,3.011-1.852,4.284-3.007s2.161-2.851,1.559-4.371c-1.192-3.011-21.1,1.6-25.364,1.107-8.587-.99-17.213-5.87-19.173-13.292,12.424.085,24.757-.73,37.157-1.4a15.47,15.47,0,0,0,5.632-1.013c1.711-.788,3.069-2.438,2.734-4.112-8.118.147-15.292-5.729-23.394-5.269-4.42.251-8.377,2.363-12.537,3.7s-9.339,1.731-12.552-.95c4.268-3.87,8.841-8.423,8.458-13.8-.209-2.941-1.916-5.644-2.455-8.552a11.5,11.5,0,0,1,2.909-9.752,6.066,6.066,0,0,1,4.1-2.227c3.571-.129,5.178,4.542,3.044,7.065s-6.09,3.167-9.662,3.265c-5.483.15-12.3-1.565-13.193-6.327-.49-2.626,1.113-5.165,2.657-7.453,5.678-8.412,13.158-17.452,16.677-26.775a52.058,52.058,0,0,0-1.288-40.148c-6.1-13.2-18.084-24.189-32.663-30.343-12.571-5.305-29.853-13.638-41.961-3.124-5.7,4.947-6.428,14.244-.284,18.758a13.838,13.838,0,0,0,13.693,1.121c9.653-4.753,4.943-17.983,4.663-25.846-.344-9.668.864-18.27,6.416-26.825,13.057-20.119,34.858-35,59.68-42.4C286.633-8.3,344.423,16.533,363.505,60.731" fill="none" stroke="#000" stroke-miterlimit="10" stroke-width="5"/>
      <path id="Path_2" data-name="Path 2" d="M202.741,89.991c26.507-30.627,85.582-22.576,104.538,10.889a71.563,71.563,0,0,1,7.484,21.5c3.548,17.8,3.068,36,2.577,54.067q-.681,24.993-1.36,49.986c-.44,16.188-4.592,35.715-15.825,48.846-6.413,7.5-13.424,15.271-23.367,18.661" fill="none" stroke="#000" stroke-miterlimit="10" stroke-width="5"/>
      <path id="Path_3" data-name="Path 3" d="M508.6,121.007c-20.781-29.841-77.4-27.981-96.722,2.785a47.731,47.731,0,0,0-6.142,16.108c-4.9,24.41,7.838,46.709,15.394,69.6,5.729,17.356,9.055,36.51.955,53.119-3.086,6.326-7.691,11.968-11.8,17.827-8.081,11.528-14.415,24.427-14.923,37.964-.712,18.958,15.677,31.129,25.545,46.321,10.117,15.575,12.076,37.958-12.091,44.136-7.551,1.93-17.848.352-21.1,8.559a9.025,9.025,0,0,0,5.114,11.379c3.56,1.472,7.8.879,11.47-.368A16.693,16.693,0,0,0,410.5,425c17.223-16.427-19.234-41-31.266-49.039-12.913-8.632-28.087-14.178-43.074-19.631l-52.292-19.027c-7.541-2.744-15.283-5.6-21.1-10.633-19.24-16.626.717-29.856,18.9-34.229,16.51-3.972,37.3-4.506,48.676-17.461,6.96-7.928,8.079-18.647,7.6-28.655-1.457-30.326-6.465-60.385-10.089-90.54-5.746-47.811,11.2-96.353,70.366-109.337C449,35.306,498.3,49.8,524.735,90.532c5.552,8.554,6.76,17.156,6.415,26.825-.28,7.863-4.989,21.092,4.664,25.845a13.834,13.834,0,0,0,13.692-1.121c6.143-4.513,5.414-13.808-.281-18.756-15.689-13.629-43-4.707-55.96,7.429-18.683,17.5-28.774,42.822-19.955,66.185,3.52,9.322,11,18.362,16.677,26.774,1.545,2.288,3.148,4.828,2.657,7.453-.889,4.763-7.709,6.478-13.192,6.328-3.572-.1-7.528-.744-9.663-3.266s-.526-7.193,3.045-7.064a6.062,6.062,0,0,1,4.1,2.227,11.493,11.493,0,0,1,2.908,9.751c-.539,2.909-2.245,5.611-2.455,8.552-.383,5.381,4.191,9.935,8.459,13.8-3.214,2.681-8.392,2.286-12.553.951s-8.117-3.447-12.536-3.7c-8.1-.461-15.277,5.416-23.4,5.268-.334,1.674,1.023,3.324,2.734,4.112a15.475,15.475,0,0,0,5.633,1.014c12.4.674,24.733,1.488,37.157,1.4-1.96,7.422-10.586,12.3-19.173,13.291-7.084.817-12.156-2.2-18.582-2.088-2.9.049-5.959,2.136-5.607,4.671.3,2.144,2.671,3.482,4.4,5.012,5.539,4.893,5.013,12.794,4.106,19.653-.639,4.833-1.619,9.769-1.7,14.6,10.565,2.362,26.7-7.2,34.355-12.831,20.393-15,36.839-37.512,37.687-61.275.453-12.679-2.063-25.272-3.649-37.88a259.463,259.463,0,0,1-2.027-31.6c-.054-18.467,2.665-38.551,17.306-51.783" fill="none" stroke="#000" stroke-miterlimit="10" stroke-width="5"/>
      <path id="Path_4" data-name="Path 4" d="M19.38,534.645l14.5-46.19,14.336,46.19Zm58.979,24.642c-.327-.658-2.607-6.74-3.648-9.694l-.006-.024L53.731,482.31q-3.117-10.033-8.7-10.035H19.987v1.355q8.957,0,12.072,9.22l1.1,3.529L12.071,553.9Q9.214,563.117,0,563.119v1.355H21.972v-1.355q-9.42,0-9.419-4.763a13.581,13.581,0,0,1,.723-3.948L19.093,536h29.54l5.75,18.439a5.347,5.347,0,0,0,.442.914,18.342,18.342,0,0,0,15.945,9.174c4.388.007,8.772.014,9.027.011l8.249-.064v-1.355c-5.624,0-7.859-.156-9.687-3.832"/>
      <path id="Path_5" data-name="Path 5" d="M236.725,491.542a8.734,8.734,0,0,0,6.5-2.819,9.925,9.925,0,0,0,0-13.6,8.884,8.884,0,0,0-13.041,0,9.925,9.925,0,0,0,0,13.6,8.753,8.753,0,0,0,6.537,2.819"/>
      <path id="Path_6" data-name="Path 6" d="M245.925,554.176V510.809c0-6.412-1.518-9.633-4.616-9.633H218.263v1.208c6.133,0,9.231,2.818,9.231,8.425v35.53a17.129,17.129,0,0,0,2.664,7.434,21.973,21.973,0,0,0,18.833,10.068l6.165-.031V562.6c-6.165,0-9.231-2.819-9.231-8.426"/>
      <path id="Path_7" data-name="Path 7" d="M286.294,554.176V481.908c0-6.412-1.518-9.633-4.584-9.633H258.632v1.208c6.164,0,9.231,2.818,9.231,8.425v64a16.907,16.907,0,0,0,3.655,8.922,23.443,23.443,0,0,0,18.834,9.014l5.173-.031V562.6c-6.133,0-9.231-2.819-9.231-8.426"/>
      <path id="Path_8" data-name="Path 8" d="M213.431,503.716a20.082,20.082,0,0,0-11.09-3.129c-5.514,0-9.819.775-12.886,2.293a35.565,35.565,0,0,0-8.085,6.133l-.681-2.044a17.254,17.254,0,0,0-1.859-3.841c-.681-1.3-1.363-1.952-2.075-1.952H153.708v1.208c6.134,0,9.231,2.819,9.231,8.426v33.733a17.666,17.666,0,0,0,3.005,9.633,21.475,21.475,0,0,0,18.245,9.665l6.412-.031V562.6c-6.164,0-9.231-2.819-9.231-8.426V510.933q6.691-7.944,14.529-7.929c2.911,0,4.367,1.61,4.367,4.8l-.434,4.832a9.2,9.2,0,0,0,2.757,6.846,8.78,8.78,0,0,0,6.443,2.788,8.458,8.458,0,0,0,6.568-2.912,9.483,9.483,0,0,0,2.663-6.722,9.994,9.994,0,0,0-4.832-8.921"/>
      <path id="Path_9" data-name="Path 9" d="M133.883,556.221c-1.8,4.585-5.173,6.877-10.16,6.877a18.84,18.84,0,0,1-11.524-4.337V510.81a42.5,42.5,0,0,0-.247-4.554c3.872-2.974,7.775-4.46,11.771-4.46,4.925,0,8.3,2.292,10.16,6.845q1.347,3.393,1.363,23.852,0,19.887-1.363,23.728M145.5,509.075q-8.178-8.5-21.776-8.488c-3.842,0-7.837,1.456-11.988,4.337q-.232,0-1.673-1.859c-.96-1.239-1.8-1.889-2.478-1.889H84.538v1.208c6.133,0,9.2,2.819,9.2,8.426v58.2a17.917,17.917,0,0,0,3.159,9.448,21.8,21.8,0,0,0,18.245,9.479l6.288-.031V586.7c-6.164,0-9.231-2.819-9.231-8.426V560.31a20.118,20.118,0,0,0,11.524,4q13.707,0,21.838-8.457,8.131-8.409,8.147-23.356,0-14.916-8.209-23.418"/>
      <path id="Path_10" data-name="Path 10" d="M426.28,531.006h27.66q0-18.307-1.733-22.148c-2.138-4.894-6.164-7.341-12.112-7.341-5.824,0-9.6,2.044-11.276,6.133q-2.555,6.412-2.539,23.356M440.1,564.12q-15.519,0-23.977-8.3c-5.514-5.544-8.3-13.413-8.3-23.6q0-15.147,8.424-23.6,8.41-8.316,23.853-8.3,15.471,0,23.883,8.3,8.41,8.457,8.394,23.6H426.28q0,21.328,2.292,24.689a13.414,13.414,0,0,0,11.523,6.04,31.6,31.6,0,0,0,16.263-4.46A34.751,34.751,0,0,0,468.47,546.8l.928.589a35.244,35.244,0,0,1-12.453,12.173,33,33,0,0,1-16.85,4.554"/>
      <path id="Path_11" data-name="Path 11" d="M526.084,501.517h1.177l1.022,16.975h-1.146a22.668,22.668,0,0,0-3.872-9.758,15.148,15.148,0,0,0-6.381-5.142,23.953,23.953,0,0,0-10.377-2.075,12.249,12.249,0,0,0-8.611,2.943c-2.107,1.951-3.16,4.027-3.16,6.2a7.273,7.273,0,0,0,2.664,6.133,45.981,45.981,0,0,0,6.474,4.089l17.284,8.395q10.828,6.041,10.812,15.705,0,19.143-27.662,19.143a28.227,28.227,0,0,1-8.178-1.177,27.349,27.349,0,0,1-9.448-5.2,4.5,4.5,0,0,0-2.881-1.208c-1.92,0-2.881,2.261-2.881,6.753h-1.177l.465-18.524h1.146a11.717,11.717,0,0,0,1.27,4.553,22.389,22.389,0,0,0,10.9,11.338,24.983,24.983,0,0,0,10.78,2.292q11.756,0,11.771-9.169c0-4.337-2.323-7.744-6.939-10.222l-16.232-7.714a23.493,23.493,0,0,1-9.169-7.124,15.266,15.266,0,0,1-2.942-9.386,16.192,16.192,0,0,1,7.093-13.97q6.969-5.064,18.617-5.049a26.468,26.468,0,0,1,9.51,1.549,17.5,17.5,0,0,0,6.69,1.517c2.045,0,3.16-.619,3.377-1.858"/>
      <path id="Path_12" data-name="Path 12" d="M554.539,491.542a8.735,8.735,0,0,0,6.505-2.819,9.925,9.925,0,0,0,0-13.6,8.884,8.884,0,0,0-13.041,0,9.928,9.928,0,0,0,0,13.6,8.753,8.753,0,0,0,6.536,2.819"/>
      <path id="Path_13" data-name="Path 13" d="M563.739,554.176V510.809c0-6.412-1.518-9.633-4.616-9.633H536.077v1.208c6.133,0,9.231,2.818,9.231,8.425v35.53a17.117,17.117,0,0,0,2.664,7.434A21.973,21.973,0,0,0,566.8,563.841l6.164-.031V562.6c-6.164,0-9.23-2.819-9.23-8.426"/>
      <path id="Path_14" data-name="Path 14" d="M707.169,554.192V522.875q0-22.256-29.985-22.272c-3.841,0-7.837,1.456-11.988,4.337q-.232,0-1.673-1.859c-.96-1.239-1.765-1.889-2.478-1.889H638V502.4c6.133,0,9.231,2.818,9.231,8.425v35.1a17.763,17.763,0,0,0,2.509,7.621A21.548,21.548,0,0,0,668.2,563.795l6.69.031v-1.208c-6.164,0-9.23-2.819-9.23-8.426V510.825a42.707,42.707,0,0,0-.217-4.553c3.841-2.974,7.744-4.461,11.74-4.461q11.523,0,11.523,22.272v20.073l.032.31a17.768,17.768,0,0,0,2.973,9.7,21.524,21.524,0,0,0,18.028,9.634l6.66.031v-1.208c-6.164,0-9.231-2.819-9.231-8.426"/>
      <path id="Path_15" data-name="Path 15" d="M617.59,510.531v47.951c-3.779,2.881-7.621,4.337-11.524,4.337-5.018,0-8.394-2.292-10.16-6.877q-1.394-3.857-1.394-23.728,0-20.445,1.394-23.852c1.86-4.553,5.235-6.845,10.16-6.845,4,0,7.9,1.486,11.741,4.46a42.714,42.714,0,0,0-.217,4.554m4.616-9.634c-.713,0-4,3.748-4.151,3.748-4.151-2.881-8.148-4.337-11.989-4.337q-13.612,0-21.807,8.55c-5.452,5.607-8.177,13.412-8.177,23.356q0,14.961,8.053,23.356c5.485,5.638,12.763,8.457,21.931,8.457a20.12,20.12,0,0,0,11.524-4v7.713c-.155,6.412-1.3,11.121-3.469,14.094-2.138,3.036-5.979,4.585-11.524,4.585a35.442,35.442,0,0,1-18.338-5.2l-.681,1.084a37.707,37.707,0,0,0,19.019,5.328c10.439,0,18.648-2.819,24.565-8.456q8.874-8.271,8.859-23.481V519.173c-.744-11.678-13.815-18.276-13.815-18.276"/>
      <path id="Path_16" data-name="Path 16" d="M378.912,551.762Q374.017,562.7,363.917,562.7H351.005V473.628h12.912q10.1,0,14.995,10.934c2.083,4.582,3.09,15.794,3.09,33.6s-1.007,29.019-3.09,33.6m12.843-66.193c-7.254-8.851-16.557-13.294-27.838-13.294H320.008v1.353c6.873,0,10.344,3.159,10.344,9.441v65.674c0,7.67,4.339,11.558,8.261,13.5a19.445,19.445,0,0,0,8.608,1.875l16.7-.07c11.281,0,20.584-4.443,27.838-13.295q10.934-13.328,10.934-32.593,0-19.315-10.934-32.593"/>
    </g>
  </g>
  <rect id="Rectangle_25" data-name="Rectangle 25" width="720" height="600" fill="none"/>
</svg>
